<!DOCTYPE svg PUBLIC "-//W3C//DTD SVG 1.1//EN" "http://www.w3.org/Graphics/SVG/1.1/DTD/svg11.dtd">
<!-- Uploaded to: SVG Repo, www.svgrepo.com, Transformed by: SVG Repo Mixer Tools -->
<svg width="800px" height="800px" viewBox="-102.4 -102.4 1228.80 1228.80" class="icon" version="1.1" xmlns="http://www.w3.org/2000/svg" fill="#ffffff" stroke="#ffffff">
<g id="SVGRepo_bgCarrier" stroke-width="0" transform="translate(61.44,61.44), scale(0.88)">
<rect x="-102.4" y="-102.4" width="1228.80" height="1228.80" rx="49.152" fill="#4f46e5" strokewidth="0"/>
</g>
<g id="SVGRepo_tracerCarrier" stroke-linecap="round" stroke-linejoin="round"/>
<g id="SVGRepo_iconCarrier">
<path d="M523.9 788.3H166.4V169c0-4.3 3.4-7.7 7.6-7.7h490.8c4.2 0 7.6 3.5 7.6 7.7v190h45.8V169c0-29.9-24-54.2-53.4-54.2H174c-29.5 0-53.4 24.3-53.4 54.2v689c0 29.9 24 54.2 53.4 54.2h359.1c-5.9-11.6-9.3-24.8-9.3-38.7v-85.2z m-102.6 96.2c-17 0-30.9-14-30.9-31.3s13.8-31.3 30.9-31.3c17 0 30.9 14 30.9 31.3-0.1 17.3-13.9 31.3-30.9 31.3z m442.9-479H607.9c-21.1 0-38.2 17.4-38.2 38.7v429.3c0 21.3 17.1 38.7 38.2 38.7h256.3c21.1 0 38.2-17.4 38.2-38.7V444.2c0-21.4-17.1-38.7-38.2-38.7zM736.1 888.9c-12.7 0-22.9-10.4-22.9-23.2 0-12.8 10.3-23.2 22.9-23.2 12.6 0 22.9 10.4 22.9 23.2 0 12.8-10.3 23.2-22.9 23.2z m120.5-69.7H615.5V451.9h241.1v367.3z" fill="#ffffff"/>
</g>
</svg>